<?xml version="1.0" encoding="utf-8"?>
<!-- Generator: Adobe Illustrator 22.1.0, SVG Export Plug-In . SVG Version: 6.00 Build 0)  -->
<svg version="1.1" id="Comfest_Logo_-_Basic_xA0_Image_1_"
	 xmlns="http://www.w3.org/2000/svg" xmlns:xlink="http://www.w3.org/1999/xlink" x="0px" y="0px" viewBox="0 0 159 159"
	 style="enable-background:new 0 0 159 159;" xml:space="preserve">
<style type="text/css">
	.st0{fill:#FFFFFF;}
	.st1{fill-rule:evenodd;clip-rule:evenodd;}
	.st2{fill-rule:evenodd;clip-rule:evenodd;fill:#FFFFFF;}
</style>
<g>
	<path class="st0" d="M1,1c53,0,106,0,159,0c0,53,0,106,0,159c-53,0-106,0-159,0C1,107,1,54,1,1z M80.9,158.1
		c42.6,0,77.3-34.8,76.8-78c-0.5-46.2-38.3-77.8-77.6-77.4C38.1,3.3,4.1,37.8,4,81.3C3.8,123.6,38.4,158.1,80.9,158.1z"/>
	<path class="st1" d="M80.9,158.1c-42.5,0-77.1-34.6-76.9-76.8c0.1-43.4,34.1-78,76.1-78.5c39.3-0.4,77.2,31.1,77.6,77.4
		C158.1,123.3,123.5,158.1,80.9,158.1z M152.9,80.7C153,40.1,121.3,7.9,81.3,7.9c-39.5,0-72.1,32.4-72.2,72
		c-0.2,39.8,32.1,72.6,71.2,73.1C118.6,153.5,153.9,121.5,152.9,80.7z"/>
	<path class="st2" d="M152.9,80.7c0.9,40.8-34.3,72.9-72.6,72.4c-39.1-0.5-71.4-33.3-71.2-73.1c0.1-39.6,32.7-72,72.2-72
		C121.3,7.9,153,40.1,152.9,80.7z M76.4,58.9c0.5-0.4,1-0.8,1.5-1.1c0-3.8,0.1-7.5-0.1-11.3c0-0.9-1.1-2-2-2.4
		c-9.7-4.7-13.4-13.3-9.9-23.4c0.5-1.5,1-2.9,1.8-5.6c-4.5,1.6-7.8,2.7-11,3.8c-3.7,1.2-5.5,3.6-4.9,7.5c0.5,2.9,1.1,5.8,1.7,8.7
		c2.6,12.3-3.9,18.7-16,15.9c-2.7-0.6-5.6-1-8.4-1.1c-6.5-0.2-12,7.4-10.5,14.1c19.6-4.6,23.8-2.9,28.8,11.9c3.6,0,7.1,0,11.6,0
		c-1.1-3.5-2-6.4-2.9-9.3c-0.4-1.3-0.9-2.5-1.5-3.7c-1.6-3.6-0.5-7.3,2.5-8.7c2.5-1.2,6.3-0.7,9.2,0.1C70,55.2,73.1,57.3,76.4,58.9z
		 M85.1,59.1c4-1.9,7.2-3.3,10.3-5c4.1-2.3,8.1-3.2,11.8,0.6c3.6,3.7,2.6,7.8,0.7,12c-1.3,3-2,6.4-3,9.6c3.4,0.2,6.8,0.4,10.2,0.6
		c0.1,0,0.3-0.1,0.7-0.3c1.1-6.2,4.7-11.4,11-12.6c5.5-1.1,11.4,0.2,17.2,0.4c0.8-10.3-5.3-15.7-16.3-13.2c-1.5,0.3-2.9,0.9-4.3,1.2
		c-6.5,1.5-12-1.3-13.1-7.9c-0.7-4.2,0.4-8.8,1.3-13.1c2.1-9.6-3.2-15.3-13.4-14c3.1,16.6,2.7,17.4-11.4,26.7
		c-0.8,0.5-1.6,1.8-1.7,2.7C85,50.5,85.1,54.1,85.1,59.1z M76.5,101.4c-4.6,2-8.2,3.3-11.6,5c-3.3,1.7-6.6,2.7-9.7-0.1
		c-3.2-2.9-2.6-6.6-1-10.1c0.6-1.4,1.8-2.5,2.3-3.9c0.9-2.5,1.5-5.1,2.3-8.1c-2.5-0.2-4-0.2-5.4-0.4c-4.1-0.4-6.7,0.2-8.3,5.1
		c-2.2,6.8-11,10.3-18.3,8.4c-2.8-0.7-5.4-2-8.3-3.1c2.2,17.4,6,17.9,19.2,14.3c1.1-0.3,2.3-0.4,3.4-0.4c8.3-0.3,12.4,3.9,11.9,12.2
		c-0.2,2.9-1.2,5.8-1.8,8.7c-1.6,8.8,4.4,14.7,13.5,13.4c-4.9-14.5-3.2-18.7,10-26.1c0.7-0.4,1.6-1.3,1.7-2.1
		C76.6,110.7,76.5,107,76.5,101.4z M103.1,85.2c1,3.3,1.4,6.6,2.9,9.3c2.3,4.4,3.1,8.5-0.2,12.5c-2.6,3-7.2,2.5-12.3-0.7
		c-2.4-1.5-5.1-2.6-8.3-4.2c0,5.4,0,9.6,0,14c6.4,1.3,11.5,4.5,12.4,10.9c0.8,5.5-0.1,11.2-0.2,16.8c9.5-0.3,13.1-4.7,11.4-14.5
		c-0.5-3.3-0.8-6.6-0.6-9.9c0.4-6.4,4.7-10.4,11.1-10.1c3.1,0.1,6.2,1,9.2,1.6c8.9,1.9,15.4-4.7,13.7-14
		c-14.5,5.2-23.8,0.8-26.9-12.3c-3,0-6.2,0-9.3,0C105.5,84.6,104.8,84.8,103.1,85.2z M81,71.9c-4.7,0.1-8.4,4.2-8.3,9.2
		c0.2,5.1,4,8.8,8.9,8.6c4.6-0.1,8.6-4.4,8.5-9.3C90.1,75.8,85.8,71.8,81,71.9z M132.8,89.1c4.1,0,8-3.8,8.1-7.9
		c0.1-4.2-3.5-8-7.8-8.1c-4.7-0.1-8.4,3.5-8.4,8C124.8,85.2,128.8,89.1,132.8,89.1z M37.2,79.8c0-4.6-3.3-8-7.6-8
		c-4.3,0-7.8,3.5-7.9,7.9c-0.1,4.4,3.4,8.2,7.5,8.3C33.7,88.2,37.2,84.6,37.2,79.8z M88,132.8c-0.1-4.1-4.1-8-8.2-7.9
		c-4.1,0.1-7.9,4.2-7.7,8.3c0.2,4.1,4.4,8.1,8.2,8C84.4,140.9,88.2,136.9,88,132.8z M82.1,19.7c-4.6-0.1-8.1,3.1-8.3,7.5
		c-0.1,3.8,3.6,7.7,7.5,7.9c4.4,0.2,7.9-3.1,8-7.7C89.5,23,86.5,19.8,82.1,19.7z"/>
	<path class="st1" d="M76.4,58.9c-3.3-1.6-6.4-3.7-9.9-4.6c-2.9-0.8-6.7-1.3-9.2-0.1c-3,1.4-4.1,5.1-2.5,8.7
		c0.5,1.2,1.1,2.4,1.5,3.7c1,2.9,1.8,5.8,2.9,9.3c-4.5,0-8.1,0-11.6,0c-5-14.8-9.2-16.5-28.8-11.9c-1.5-6.7,4.1-14.3,10.5-14.1
		c2.8,0.1,5.6,0.4,8.4,1.1c12.1,2.8,18.6-3.6,16-15.9c-0.6-2.9-1.3-5.8-1.7-8.7c-0.6-3.9,1.2-6.3,4.9-7.5c3.3-1.1,6.5-2.2,11-3.8
		c-0.9,2.7-1.4,4.2-1.8,5.6c-3.4,10.1,0.3,18.8,9.9,23.4c0.9,0.4,1.9,1.5,2,2.4c0.2,3.7,0.1,7.5,0.1,11.3
		C77.4,58.2,76.9,58.5,76.4,58.9z"/>
	<path class="st1" d="M85.1,59.1c0-5-0.1-8.7,0.1-12.3c0.1-0.9,0.9-2.2,1.7-2.7c14.1-9.3,14.4-10.2,11.4-26.7
		c10.2-1.3,15.5,4.4,13.4,14c-0.9,4.3-2,8.9-1.3,13.1c1.1,6.6,6.6,9.4,13.1,7.9c1.5-0.3,2.9-0.9,4.3-1.2c11-2.5,17.1,2.9,16.3,13.2
		c-5.8-0.2-11.7-1.5-17.2-0.4c-6.2,1.2-9.8,6.4-11,12.6c-0.4,0.2-0.5,0.4-0.7,0.3c-3.4-0.2-6.8-0.4-10.2-0.6c1-3.2,1.6-6.6,3-9.6
		c1.9-4.2,2.9-8.3-0.7-12c-3.7-3.8-7.7-2.9-11.8-0.6C92.3,55.8,89.1,57.2,85.1,59.1z"/>
	<path class="st1" d="M76.5,101.4c0,5.7,0.1,9.3-0.1,12.9c0,0.7-0.9,1.6-1.7,2.1c-13.3,7.4-14.9,11.6-10,26.1
		c-9.1,1.3-15.2-4.6-13.5-13.4c0.5-2.9,1.6-5.8,1.8-8.7c0.5-8.3-3.6-12.4-11.9-12.2c-1.2,0-2.3,0.1-3.4,0.4
		c-13.3,3.6-17.1,3.1-19.2-14.3c2.8,1.1,5.5,2.3,8.3,3.1c7.3,1.9,16.1-1.6,18.3-8.4c1.6-4.9,4.3-5.5,8.3-5.1
		c1.5,0.2,2.9,0.2,5.4,0.4c-0.8,3-1.4,5.6-2.3,8.1c-0.5,1.4-1.6,2.5-2.3,3.9c-1.6,3.5-2.2,7.1,1,10.1c3.1,2.8,6.4,1.7,9.7,0.1
		C68.3,104.6,71.9,103.3,76.5,101.4z"/>
	<path class="st1" d="M103.1,85.2c1.7-0.4,2.4-0.6,3-0.6c3.1,0,6.3,0,9.3,0c3.1,13.1,12.4,17.5,26.9,12.3c1.7,9.3-4.8,15.9-13.7,14
		c-3.1-0.7-6.1-1.5-9.2-1.6c-6.4-0.3-10.8,3.7-11.1,10.1c-0.2,3.3,0,6.7,0.6,9.9c1.7,9.8-1.9,14.2-11.4,14.5
		c0.1-5.6,1-11.3,0.2-16.8c-0.9-6.4-6-9.6-12.4-10.9c0-4.4,0-8.6,0-14c3.2,1.6,5.9,2.7,8.3,4.2c5.1,3.2,9.7,3.7,12.3,0.7
		c3.4-4,2.6-8.1,0.2-12.5C104.5,91.7,104.1,88.5,103.1,85.2z"/>
	<path class="st1" d="M81,71.9c4.8-0.1,9.1,4,9.2,8.6c0,4.8-3.9,9.1-8.5,9.3c-4.9,0.2-8.7-3.6-8.9-8.6C72.6,76,76.2,71.9,81,71.9z"
		/>
	<path class="st1" d="M132.8,89.1c-4,0-8-4-8-8c-0.1-4.5,3.7-8.1,8.4-8c4.3,0.1,7.9,3.8,7.8,8.1C140.8,85.4,136.9,89.1,132.8,89.1z"
		/>
	<path class="st1" d="M37.2,79.8c0,4.8-3.5,8.3-8,8.2c-4.1-0.1-7.6-3.9-7.5-8.3c0.1-4.4,3.6-7.9,7.9-7.9
		C34,71.8,37.2,75.3,37.2,79.8z"/>
	<path class="st1" d="M88,132.8c0.1,4.1-3.6,8.2-7.7,8.3c-3.8,0.2-8-3.9-8.2-8c-0.2-4.1,3.6-8.2,7.7-8.3
		C83.9,124.8,87.9,128.7,88,132.8z"/>
	<path class="st1" d="M82.1,19.7c4.3,0.1,7.4,3.3,7.3,7.7c-0.1,4.5-3.6,7.9-8,7.7c-4-0.2-7.7-4.1-7.5-7.9
		C74,22.9,77.5,19.7,82.1,19.7z"/>
</g>
</svg>
